<svg width="20" height="24" viewBox="0 0 20 24" fill="none" xmlns="http://www.w3.org/2000/svg">
<path opacity="0.2" d="M19.7149 17.56C18.7454 19.4146 17.3077 20.9834 15.5445 22.1107C13.7813 23.238 11.754 23.8846 9.66369 23.9863L10.0599 21.9313C10.0894 21.777 10.0821 21.618 10.0387 21.467C9.99528 21.3161 9.91691 21.1775 9.80994 21.0625L7.34244 18.5213C7.20943 18.3777 7.12147 18.1982 7.08948 18.0051C7.05748 17.8121 7.08285 17.6138 7.16244 17.435L8.87494 13.5925C8.96298 13.3951 9.11263 13.2314 9.30148 13.1262C9.49033 13.021 9.7082 12.9798 9.92244 13.0088L12.7749 13.3938C12.9131 13.4127 13.0459 13.4599 13.1649 13.5325L19.7149 17.56ZM7.66744 7.87501L9.20369 7.03001C9.27148 6.99335 9.33446 6.94842 9.39119 6.89626L12.7549 3.85501C12.9224 3.70274 13.0332 3.49817 13.0693 3.27475C13.1054 3.05133 13.0646 2.82227 12.9537 2.62501L11.6412 0.273764C10.7992 0.0913836 9.94018 -0.00038852 9.07869 1.39157e-05C6.33955 -0.00416438 3.68211 0.932694 1.55119 2.65376L0.0786893 6.13501C-0.0207719 6.37068 -0.0261398 6.63551 0.0636894 6.87501L1.50119 10.7088C1.56025 10.8654 1.6577 11.0047 1.78459 11.1139C1.91147 11.2231 2.06375 11.2987 2.22744 11.3338L2.56369 11.4063L4.22869 8.50001C4.31658 8.34778 4.44305 8.2214 4.59535 8.13362C4.74765 8.04584 4.9204 7.99975 5.09619 8.00001H7.18494C7.35381 8.00029 7.51994 7.95725 7.66744 7.87501Z" fill="#EF5F4C"/>
</svg>
